,
Brought to you by  http://www.scenetime.com/signup.php
 
 Hottest scene tracker on the net !!!   
 
No fake torrents from scenebalance 
shame on those who comment fake before downloading my torrents

    seed back for speed


 



...................................NFO:.................................................
                   _..._                          _..._    
                .-'_..._''.                    .-'_..._''.  
        .--.  .' .'      '.\                 .' .'      '.\
        |__| / .'                           / .'            
    .|  .--.. '               .|           . '              
  .' |_ |  || |             .' |_     __   | |              
.'     ||  || |           .'     | .:--.'. | |              
'--.  .-'|  |. '          '--.  .-'/ |   \ |. '              
  |  |  |  | \ '.          .|  |  `" __ | | \ '.          .
  |  |  |__|  '. `._____.-'/|  |   .'.''| |  '. `._____.-'/
  |  '.'        `-.______ / |  '.'/ /   | |_   `-.______ /  
  |   /                  `  |   / \ \._,\ '/            `  
  `'-'                      `'-'   `--'  `"                

_____ _____  ____   ____  ____  __  _  _____  ____
| ()_)| () )| ===| (_ (_`| ===||  \| ||_   _|(_ (_`
|_|   |_|\_\|____|.__)__)|____||_|\__|  |_| .__)__)


Incubus 2005 DVDRip TiCTaC

 
http://www.imdb.com/title/tt0462359/


After a car accident in the mountains of Montana, six friends - Jay-Jay, her brother Josh, Bug, Holly, Peter and Karen - decide to find a shelter to protect themselves against the cold night. With the exception of Karen, the other five friends break in a facility using a rope through the skylight, but the rope breaks and they become trapped in the laboratory. They find two scientists dead and another completely insane, and they realize that the team of scientists was conducting experiments with a serial-killer in coma. When each youngster sleeps, the Sleeper invades the dream turning his victim into a slayer. The survivors try to escape from the sleepwalkers and find an exit.



    3.1/10  

Cast

Tara Reid 	Tara Reid 	... 	
Jay
Akemnji Ndifernyan 	Akemnji Ndifernyan 	... 	
Bug (as Akemnji Ndifornyen)
Alice O'Connell 	Alice O'Connell 	... 	
Holly
Russell Carter 	Russell Carter 	... 	
Josh
Christian Brassington 	Christian Brassington 	... 	
Peter
Mihai Stanescu 	Mihai Stanescu 	... 	
Sleeper
Monica Barladeanu 	Monica Barladeanu 	... 	
Karen (as Monica Dean)
Sandu Mihai Gruia 	Sandu Mihai Gruia 	... 	
Dr. Gregg (as Mihai Sandu Gruia)
Luana Stoica 	Luana Stoica 	... 	
Dr. Yousov
Ioan Brancu 	Ioan Brancu 	... 	
Crazy Man
Dan Mason 	Dan Mason 	... 	
The Sheriff
Silviu Olteanu 	Silviu Olteanu 	... 	
The Deputy
Full cast and crew 
Edit
Storyline

 
Genres:
Horror | Mystery | Thriller

Language:
English

December 2006 (

Runtime:
84 min  

Color

General
Complete name                    : G:\TORRENTS\Incubus 2005 DVDRip TiCTaC\Incubus 2005 DVDRip TiCTaC.avi
Format                           : AVI
Format/Info                      : Audio Video Interleave
File size                        : 1.04 GiB
Duration                         : 1h 27mn
Overall bit rate                 : 1 702 Kbps
Writing application              : Lavf52.13.0
Writing library                  : VirtualDub build 32842/release

Video
ID                               : 0
Format                           : MPEG-4 Visual
Format profile                   : Simple@L1
Format settings, BVOP            : No
Format settings, QPel            : No
Format settings, GMC             : No warppoints
Format settings, Matrix          : Default (H.263)
Codec ID                         : XVID
Codec ID/Hint                    : XviD
Duration                         : 1h 27mn
Bit rate                         : 1 497 Kbps
Width                            : 720 pixels
Height                           : 432 pixels
Display aspect ratio             : 16:9
Frame rate                       : 25.000 fps
Resolution                       : 8 bits
Colorimetry                      : 4:2:0
Scan type                        : Progressive
Bits/(Pixel*Frame)               : 0.193
Stream size                      : 938 MiB (88%)
Writing library                  : Lavc51.54.0

Audio
ID                               : 1
Format                           : MPEG Audio
Format version                   : Version 1
Format profile                   : Layer 3
Mode                             : Joint stereo
Format_Settings_ModeExtension    : MS Stereo
Codec ID                         : 55
Codec ID/Hint                    : MP3
Duration                         : 1h 27mn
Bit rate mode                    : Constant
Bit rate                         : 192 Kbps
Channel(s)                       : 2 channels
Sampling rate                    : 44.1 KHz
Stream size                      : 120 MiB (11%)
Alignment                        : Aligned on interleaves
Interleave, duration             : 26 ms (0.65 video frame)
Interleave, preload duration     : 522 ms
Writing library                  : LAME3.98 (beta)